<svg width="240" height="240" viewBox="0 0 240 240" xmlns="http://www.w3.org/2000/svg">
  <defs>
    <pattern id="kente-base" width="80" height="80" patternUnits="userSpaceOnUse">
      <!-- Background -->
      <rect width="80" height="80" fill="#111827" opacity="0.05"/>
      
      <!-- Horizontal stripes -->
      <rect x="0" y="0" width="80" height="6" fill="#E9A52F" opacity="0.85" />
      <rect x="0" y="15" width="80" height="4" fill="#E9A52F" opacity="0.7" />
      <rect x="0" y="30" width="80" height="8" fill="#E9A52F" opacity="0.85" />
      <rect x="0" y="45" width="80" height="4" fill="#E9A52F" opacity="0.7" />
      <rect x="0" y="60" width="80" height="6" fill="#E9A52F" opacity="0.85" />
      <rect x="0" y="75" width="80" height="4" fill="#E9A52F" opacity="0.7" />
      
      <!-- Vertical lines -->
      <rect x="0" y="0" width="6" height="80" fill="#037B7F" opacity="0.85" />
      <rect x="15" y="0" width="4" height="80" fill="#037B7F" opacity="0.7" />
      <rect x="30" y="0" width="6" height="80" fill="#037B7F" opacity="0.85" />
      <rect x="45" y="0" width="4" height="80" fill="#037B7F" opacity="0.7" />
      <rect x="60" y="0" width="6" height="80" fill="#037B7F" opacity="0.85" />
      <rect x="75" y="0" width="4" height="80" fill="#037B7F" opacity="0.7" />
      
      <!-- Diamond patterns -->
      <rect x="8" y="8" width="14" height="14" fill="#A51744" opacity="0.9" rx="2" />
      <rect x="38" y="8" width="14" height="14" fill="#A51744" opacity="0.9" rx="2" />
      <rect x="68" y="8" width="14" height="14" fill="#A51744" opacity="0.9" rx="2" />
      
      <rect x="23" y="23" width="14" height="14" fill="#FFD24C" opacity="0.9" rx="2" />
      <rect x="53" y="23" width="14" height="14" fill="#FFD24C" opacity="0.9" rx="2" />
      
      <rect x="8" y="38" width="14" height="14" fill="#0a558c" opacity="0.9" rx="2" />
      <rect x="38" y="38" width="14" height="14" fill="#0a558c" opacity="0.9" rx="2" />
      <rect x="68" y="38" width="14" height="14" fill="#0a558c" opacity="0.9" rx="2" />
      
      <rect x="23" y="53" width="14" height="14" fill="#FF7D00" opacity="0.9" rx="2" />
      <rect x="53" y="53" width="14" height="14" fill="#FF7D00" opacity="0.9" rx="2" />
      
      <rect x="8" y="68" width="14" height="14" fill="#A51744" opacity="0.9" rx="2" />
      <rect x="38" y="68" width="14" height="14" fill="#A51744" opacity="0.9" rx="2" />
      <rect x="68" y="68" width="14" height="14" fill="#A51744" opacity="0.9" rx="2" />
      
      <!-- Detail patterns inside diamonds -->
      <circle cx="15" cy="15" r="4" fill="#111827" opacity="0.6" />
      <circle cx="45" cy="15" r="4" fill="#111827" opacity="0.6" />
      <circle cx="75" cy="15" r="4" fill="#111827" opacity="0.6" />
      
      <circle cx="30" cy="30" r="4" fill="#111827" opacity="0.6" />
      <circle cx="60" cy="30" r="4" fill="#111827" opacity="0.6" />
      
      <circle cx="15" cy="45" r="4" fill="#111827" opacity="0.6" />
      <circle cx="45" cy="45" r="4" fill="#111827" opacity="0.6" />
      <circle cx="75" cy="45" r="4" fill="#111827" opacity="0.6" />
      
      <circle cx="30" cy="60" r="4" fill="#111827" opacity="0.6" />
      <circle cx="60" cy="60" r="4" fill="#111827" opacity="0.6" />
      
      <circle cx="15" cy="75" r="4" fill="#111827" opacity="0.6" />
      <circle cx="45" cy="75" r="4" fill="#111827" opacity="0.6" />
      <circle cx="75" cy="75" r="4" fill="#111827" opacity="0.6" />
      
      <!-- Accent lines -->
      <line x1="0" y1="10" x2="80" y2="10" stroke="#037B7F" stroke-width="2" opacity="0.8" />
      <line x1="0" y1="40" x2="80" y2="40" stroke="#A51744" stroke-width="2" opacity="0.8" />
      <line x1="0" y1="70" x2="80" y2="70" stroke="#037B7F" stroke-width="2" opacity="0.8" />
      
      <line x1="10" y1="0" x2="10" y2="80" stroke="#E9A52F" stroke-width="2" opacity="0.8" />
      <line x1="40" y1="0" x2="40" y2="80" stroke="#A51744" stroke-width="2" opacity="0.8" />
      <line x1="70" y1="0" x2="70" y2="80" stroke="#E9A52F" stroke-width="2" opacity="0.8" />
    </pattern>
  </defs>
  
  <rect width="240" height="240" fill="url(#kente-base)" />
</svg> 