<?xml version="1.0" encoding="utf-8"?>
<!-- Generator: Adobe Illustrator 28.2.0, SVG Export Plug-In . SVG Version: 6.00 Build 0)  -->
<svg version="1.1" id="Layer_1" xmlns="http://www.w3.org/2000/svg" xmlns:xlink="http://www.w3.org/1999/xlink" x="0px" y="0px"
	 viewBox="0 0 24 24" style="enable-background:new 0 0 24 24;" xml:space="preserve">
<style type="text/css">
	.st0{stroke:#000000;stroke-miterlimit:10;}
</style>
<path class="st0" d="M13.4,2.4c0.1,0,0.2,0,0.2,0c0.4,0.1,0.7,0.2,1,0.4c0.2,0.2,0.4,0.5,0.5,0.8c0.2,0.6,0,1.2-0.5,1.7
	c-0.2,0.2-0.5,0.4-0.9,0.4c-0.7,0.1-1.2-0.2-1.6-0.7c0,0,0-0.1-0.1-0.1c0,0,0,0-0.1,0c-0.1,0-0.3,0.1-0.4,0.1
	c-0.9,0.3-1.7,0.7-2.4,1.4C8.5,7.1,8.1,7.9,7.7,8.7c-0.3,0.6-0.4,1.3-0.5,2c-0.1,0.4-0.1,0.8-0.1,1.2c0,0.6,0,1.3,0.1,1.9
	c0.2,1.1,0.6,2.1,1.3,3c0.7,1,1.7,1.7,2.8,2.1c0.6,0.2,1.2,0.3,1.8,0.4c0.5,0,1,0,1.5,0c0.7-0.1,1.4-0.3,2.1-0.6
	c0.1-0.1,0.2-0.1,0.4-0.2c0,0,0,0,0-0.1c0,0,0,0,0-0.1c0-1.7,0-3.4,0-5.1c0-0.1,0-0.1-0.1-0.1c-0.5,0-1.1,0-1.6,0c0,0-0.1,0-0.1,0
	c0,0,0,0-0.1,0c0,0,0,0,0,0.1c0,1.4,0,2.8,0,4.2c0,0.1,0,0.1-0.1,0.1c-0.5,0.2-1,0.2-1.6,0.2c-0.5,0-0.9-0.1-1.4-0.2
	c-0.1,0-0.1,0-0.1-0.1c0,0,0,0,0,0c0-2.9,0-5.7,0-8.6c0,0,0,0,0-0.1c0,0,0,0,0,0c0,0,0,0,0,0c0.2,0.1,0.3,0.1,0.5,0.2
	c0.9,0.3,1.7,0.2,2.5-0.2c0,0,0.1,0,0.1,0c0,0,0,0.1,0,0.1c0,0.8,0,1.6,0,2.3c0,0,0,0,0,0.1c0,0,0,0.1,0.1,0c0,0,0,0,0,0
	c0.9,0,1.7,0,2.6,0c0.3,0,0.7,0,1,0c0,0,0.1,0,0.1,0c0.1,0,0.2,0.1,0.2,0.1c0.2,0.2,0.3,0.5,0.3,0.7c0,2.3,0,4.6,0,6.9
	c0,0.1,0,0.2-0.1,0.3c-0.1,0.3-0.2,0.5-0.4,0.8c-0.1,0.1-0.3,0.2-0.4,0.3c-0.8,0.3-1.7,0.6-2.6,0.8c-0.5,0.1-1,0.2-1.5,0.2
	c-0.3,0-0.7,0-1,0c-1.1,0-2.1-0.1-3.2-0.5c-1.1-0.4-2.2-0.9-3-1.7c-0.7-0.6-1.2-1.3-1.6-2.1c-0.4-0.8-0.7-1.7-0.9-2.6
	c-0.1-0.6-0.2-1.2-0.2-1.7c0-0.6,0-1.2,0-1.7c0.1-1,0.3-2,0.7-3c0.3-0.8,0.8-1.6,1.4-2.3c0.6-0.7,1.3-1.4,2.1-1.9
	c0.6-0.4,1.3-0.8,2.1-1c0.5-0.2,1-0.3,1.5-0.4c0.2,0,0.3,0,0.5-0.1c0,0,0,0,0,0C13.1,2.4,13.2,2.4,13.4,2.4z"/>
</svg>
